<?xml version="1.0" encoding="UTF-8"?>
<svg version="1.1" xmlns="http://www.w3.org/2000/svg" width="375" height="375">
<path d="M0 0 C1.87187852 0.94371715 3.74687158 1.88128312 5.625 2.8125 C7.08333333 3.54166667 8.54166667 4.27083333 10 5 C10 5.66 10 6.32 10 7 C10.61875 7.28875 11.2375 7.5775 11.875 7.875 C14 9 14 9 16 11 C16.24050903 13.51834106 16.24050903 13.51834106 16.22705078 16.73486328 C16.22682419 18.53650436 16.22682419 18.53650436 16.22659302 20.37454224 C16.21627045 21.67664642 16.20594788 22.97875061 16.1953125 24.3203125 C16.19158276 25.66266673 16.18873561 27.00502367 16.18673706 28.34738159 C16.17909744 31.882014 16.1594463 35.41648228 16.1373291 38.9510498 C16.11687765 42.5571877 16.10773685 46.16335209 16.09765625 49.76953125 C16.0762006 56.84642135 16.04206079 63.92319997 16 71 C14.68 71 13.36 71 12 71 C10.07158385 68.75758675 8.44913039 66.62682429 6.8125 64.1875 C6.36197266 63.54490234 5.91144531 62.90230469 5.44726562 62.24023438 C3.57306509 59.52868487 2.04705992 57.14117977 1 54 C-0.31018441 53.28891701 -1.64777819 52.62746983 -3 52 C-4.26788575 50.98017885 -5.51633007 49.93595614 -6.75 48.875 C-21.93760945 36.85566669 -44.5881563 28.90467692 -64 31 C-82.91566855 33.44755456 -98.31858485 39.77646004 -113 52 C-114.00933594 52.7940625 -115.01867187 53.588125 -116.05859375 54.40625 C-127.79577126 64.75616483 -137.90283672 84.47737596 -140 100 C-140.08806228 102.06630653 -140.13058042 104.13494399 -140.1328125 106.203125 C-140.13410156 107.3478125 -140.13539063 108.4925 -140.13671875 109.671875 C-140.13091797 111.44304687 -140.13091797 111.44304687 -140.125 113.25 C-140.12886719 114.44625 -140.13273437 115.6425 -140.13671875 116.875 C-140.13478516 118.58429688 -140.13478516 118.58429688 -140.1328125 120.328125 C-140.13112061 121.88901855 -140.13112061 121.88901855 -140.12939453 123.48144531 C-140.1688479 125.99624798 -140.1688479 125.99624798 -139 128 C-138.91234375 129.30710938 -138.8246875 130.61421875 -138.734375 131.9609375 C-138.13499222 137.766587 -135.82990017 142.45028694 -133.25 147.625 C-132.81945312 148.52734375 -132.38890625 149.4296875 -131.9453125 150.359375 C-128.27900323 157.88957906 -124.16735732 164.24379984 -118 170 C-117.28972656 170.680625 -116.57945312 171.36125 -115.84765625 172.0625 C-99.00904406 187.81045958 -78.94858376 195.76273235 -55.94873047 195.53613281 C-37.89687883 194.87059639 -21.06056293 188.27401501 -7 177 C-6.34 177 -5.68 177 -5 177 C-5 176.34 -5 175.68 -5 175 C-3.49609375 173.58984375 -3.49609375 173.58984375 -1.4375 171.9375 C10.32310627 161.83040604 16.34140889 148.14647778 22 134 C36.19 134 50.38 134 65 134 C63.79565763 146.04342373 61.25795631 155.21187711 56 166 C55.24396484 167.65708984 55.24396484 167.65708984 54.47265625 169.34765625 C46.72007613 185.81960884 34.28416204 200.28563556 20.30664062 211.89599609 C17.27276972 214.66334362 14.54417003 217.667217 11.76953125 220.69140625 C4.5917678 228.44508752 -2.80648583 235.95975948 -10.28857422 243.41894531 C-12.39799657 245.52293737 -14.50192439 247.63232035 -16.60546875 249.7421875 C-17.97363735 251.10969622 -19.34211561 252.4768952 -20.7109375 253.84375 C-21.32568939 254.46052612 -21.94044128 255.07730225 -22.57382202 255.71276855 C-26.31624358 259.43535944 -30.17618462 262.96174337 -34.19078064 266.38960266 C-37.07556846 268.95737014 -39.62514889 271.80357212 -42.1875 274.6875 C-50.7697537 284.32155533 -50.7697537 284.32155533 -55.32421875 285.70703125 C-61.22107765 285.97019685 -64.10867117 284.60533797 -68.5625 280.6875 C-72.80875576 276.57373272 -72.80875576 276.57373272 -74 273 C-74.66 273 -75.32 273 -76 273 C-77.5078125 271.5390625 -77.5078125 271.5390625 -79.125 269.625 C-79.66382813 268.99851562 -80.20265625 268.37203125 -80.7578125 267.7265625 C-82 266 -82 266 -82 264 C-82.556875 263.7525 -83.11375 263.505 -83.6875 263.25 C-86.42410913 261.77075182 -88.67650869 260.06532561 -91 258 C-91 257.34 -91 256.68 -91 256 C-91.88507233 255.60192139 -91.88507233 255.60192139 -92.7880249 255.19580078 C-95.06520981 253.96474737 -96.56421812 252.68937484 -98.39160156 250.8671875 C-99.0319635 250.23312988 -99.67232544 249.59907227 -100.33209229 248.94580078 C-101.01140808 248.26243652 -101.69072388 247.57907227 -102.390625 246.875 C-103.09523865 246.1722998 -103.79985229 245.46959961 -104.52581787 244.74560547 C-106.01088353 243.26189896 -107.49343381 241.77567108 -108.97363281 240.28710938 C-111.24844325 238.00156409 -113.5337536 235.72690983 -115.8203125 233.453125 C-117.26105868 232.01105781 -118.70118465 230.56837065 -120.140625 229.125 C-120.82803772 228.44163574 -121.51545044 227.75827148 -122.22369385 227.05419922 C-122.85144714 226.4201416 -123.47920044 225.78608398 -124.12597656 225.1328125 C-124.68238831 224.57480957 -125.23880005 224.01680664 -125.81207275 223.44189453 C-127 222 -127 222 -127 220 C-127.66 220 -128.32 220 -129 220 C-133 215.52941176 -133 215.52941176 -133 213 C-133.58918213 212.72937744 -134.17836426 212.45875488 -134.78540039 212.17993164 C-152.36001381 202.81623341 -165.77966612 181.71002984 -173.20507812 163.88818359 C-173.91706493 162.19699626 -174.68180842 160.52824688 -175.453125 158.86328125 C-180.63343584 147.42602869 -183.63610487 134.55438207 -184 122 C-184.03867188 120.86981445 -184.03867188 120.86981445 -184.078125 119.71679688 C-185.11121564 85.650633 -176.40010476 52.70975798 -152.63671875 27.328125 C-143.6198231 18.00557187 -134.286865 9.33689365 -122.6640625 3.39453125 C-120.10604638 2.05551108 -117.73494882 0.56770517 -115.3125 -1 C-81.45717245 -21.2390221 -33.91955373 -18.54425429 0 0 Z " fill="#EFBF43" transform="translate(246,52)"/>
<path d="M0 0 C3.76977152 2.57975534 6.31702024 4.85340447 7.76953125 9.2109375 C7.8369399 10.77212178 7.85467581 12.3359627 7.83203125 13.8984375 C7.82300781 14.70667969 7.81398437 15.51492187 7.8046875 16.34765625 C7.79308594 16.96253906 7.78148437 17.57742187 7.76953125 18.2109375 C1.23674339 18.23620752 -5.29603196 18.25377042 -11.82885742 18.26586914 C-14.05314607 18.27091067 -16.27743138 18.27774373 -18.50170898 18.28637695 C-21.69125184 18.29845048 -24.88075104 18.30416746 -28.0703125 18.30859375 C-29.57186134 18.31633568 -29.57186134 18.31633568 -31.10374451 18.32423401 C-32.02462357 18.32430954 -32.94550262 18.32438507 -33.89428711 18.32446289 C-35.11673378 18.32779381 -35.11673378 18.32779381 -36.36387634 18.33119202 C-38.23046875 18.2109375 -38.23046875 18.2109375 -39.23046875 17.2109375 C-39.51200209 12.42487074 -39.2694506 8.58018432 -37.23046875 4.2109375 C-28.61359476 -4.92817128 -10.67239746 -5.75452406 0 0 Z " fill="#FDFDFB" transform="translate(203.23046875,175.7890625)"/>
<path d="M0 0 C3.39113881 1.68516714 5.43656194 4.05239963 7.375 7.3125 C8.62246021 12.67657889 8.78161092 16.4067162 6.375 21.3125 C2.80602822 25.35107332 -0.15078875 26.80187022 -5.5 27.375 C-9.96968805 26.89610485 -13.28505978 26.05474262 -16.26171875 22.48828125 C-18.92044526 18.33693634 -19.71031571 14.97220999 -19 10 C-17.61770638 6.42229886 -15.72892367 3.66460687 -12.875 1.0625 C-8.53845472 -0.5401363 -4.5582834 -0.78037812 0 0 Z " fill="#FDFCF9" transform="translate(193,142)"/>
<path d="M0 0 C2.4768098 2.4768098 2.51210572 3.89450526 3.0625 7.3125 C3.21847656 8.25738281 3.37445313 9.20226562 3.53515625 10.17578125 C3.68855469 11.10777344 3.84195313 12.03976563 4 13 C4.22042969 13.89589844 4.44085938 14.79179687 4.66796875 15.71484375 C4.77753906 16.46894531 4.88710937 17.22304687 5 18 C2.79965786 20.82901133 1.41880464 21.86039845 -2 23 C-6.96736392 23.36795288 -10.10647112 23.2446074 -14 20 C-17.06276289 15.71213196 -17.47613282 12.19350293 -16.71484375 7.12109375 C-15.45860949 3.39357899 -13.26951482 2.09248949 -10 0 C-6.25976024 -1.24674659 -3.83399823 -0.76679965 0 0 Z " fill="#FDFCFA" transform="translate(169,151)"/>
<path d="M0 0 C2.64233769 2.19257809 4.46669809 3.93339618 6 7 C6.39431433 11.73177192 6.45299639 14.09400722 4.3125 18.375 C1.09516256 22.02711277 -1.19650435 22.76976651 -5.9375 23.375 C-9.92634301 22.88657024 -11.96832883 21.60864728 -15 19 C-16.0625 16.625 -16.0625 16.625 -16 14 C-15.03523618 11.98276656 -14.03161608 9.98387708 -13 8 C-12.855625 6.7625 -12.71125 5.525 -12.5625 4.25 C-12 1 -12 1 -10.4375 -0.5 C-6.80302607 -1.24553311 -3.51713508 -1.10259393 0 0 Z " fill="#FCFCF9" transform="translate(217,151)"/>
<path d="M0 0 C-0.309375 0.61875 -0.61875 1.2375 -0.9375 1.875 C-2.17953102 5.52803242 -2.37786419 8.85918177 -2.55859375 12.6953125 C-3 15 -3 15 -4.18359375 16.8203125 C-6.79785281 18.51817537 -8.57153144 18.12060568 -11.625 17.75 C-13.09839844 17.58757812 -13.09839844 17.58757812 -14.6015625 17.421875 C-17 17 -17 17 -18 16 C-18.38270052 11.0248932 -18.17088582 7.93627205 -15 4 C-10.63062362 0.72296771 -5.34715078 -1.78238359 0 0 Z " fill="#FCFBF3" transform="translate(163,177)"/>
<path d="M0 0 C10.75718016 2.75718016 10.75718016 2.75718016 15 7 C16.71466036 10.42932071 16.05404056 14.21716065 16 18 C11.38 18 6.76 18 2 18 C1.54427083 14.71223958 1.08854167 11.42447917 0.6328125 8.13671875 C0.17699379 4.85469105 0.17699379 4.85469105 -2 2 C-1.34 1.34 -0.68 0.68 0 0 Z " fill="#FCFBF4" transform="translate(214,176)"/>
<path d="M0 0 C0.66 0.33 1.32 0.66 2 1 C-2.625 6.875 -2.625 6.875 -6 8 C-5.65120368 4.74456771 -4.97866739 3.98126893 -2.4375 1.75 C-1.633125 1.1725 -0.82875 0.595 0 0 Z " fill="#FCF7E4" transform="translate(159,151)"/>
<path d="M0 0 C2.475 0.495 2.475 0.495 5 1 C5 1.66 5 2.32 5 3 C3.35 3 1.7 3 0 3 C0 2.01 0 1.02 0 0 Z " fill="#FBEDB9" transform="translate(223,202)"/>
</svg>
