<?xml version="1.0" encoding="UTF-8"?>
<svg version="1.1" xmlns="http://www.w3.org/2000/svg" width="375" height="135">
<path d="M0 0 C2.91162528 2.39820644 2.97925122 2.83919695 3.5 6.875 C3.35754467 10.23199092 2.95124481 11.07091664 0.9375 14 C-2.84306973 16.57400492 -4.47659118 16.59323394 -9 16 C-10.65310596 15.52459698 -12.29876248 15.02278743 -13.9375 14.5 C-22.06609022 11.92533342 -29.15745266 12.49641367 -37 16 C-43.64137194 20.27690444 -48.24775305 26.39505623 -50.609375 33.94921875 C-52.23857533 42.5025205 -50.60158042 49.24720039 -47 57 C-46.67 57.99 -46.34 58.98 -46 60 C-43.99983534 61.20882096 -43.99983534 61.20882096 -42 62 C-42 62.66 -42 63.32 -42 64 C-40.3369416 64.67561748 -38.66905395 65.33933281 -37 66 C-35.80375 66.53625 -34.6075 67.0725 -33.375 67.625 C-25.92041907 70.40991892 -17.69894115 69.16210432 -10 68 C-10.10828125 66.96939453 -10.10828125 66.96939453 -10.21875 65.91796875 C-10.3115625 65.01691406 -10.404375 64.11585937 -10.5 63.1875 C-10.5928125 62.29417969 -10.685625 61.40085937 -10.78125 60.48046875 C-11 58 -11 58 -11 55 C-11.95261719 54.98582031 -12.90523437 54.97164062 -13.88671875 54.95703125 C-24.09664136 54.56878137 -24.09664136 54.56878137 -28.375 51.875 C-30.46546825 48.17647925 -30.74744854 46.18571183 -30 42 C-27.5625 39.125 -27.5625 39.125 -25 37 C-24.67 36.67 -24.34 36.34 -24 36 C-19.59137757 35.6616001 -15.16993288 35.67486591 -10.75 35.625 C-9.50863281 35.58761719 -8.26726562 35.55023438 -6.98828125 35.51171875 C-5.79074219 35.50011719 -4.59320313 35.48851562 -3.359375 35.4765625 C-1.71146973 35.4468335 -1.71146973 35.4468335 -0.03027344 35.41650391 C4.13952889 36.21942266 5.53413931 37.56780749 8 41 C8.48745933 43.94191609 8.68079763 46.29074393 8.62890625 49.22265625 C8.63131821 50.00515244 8.63373016 50.78764862 8.63621521 51.59385681 C8.63523889 53.24206632 8.62189628 54.89030948 8.59692383 56.53833008 C8.56255336 59.05858763 8.57628742 61.57534787 8.59570312 64.09570312 C8.58880572 65.70053572 8.57913428 67.3053593 8.56640625 68.91015625 C8.57384605 70.03684471 8.57384605 70.03684471 8.58143616 71.18629456 C8.50303833 74.67296617 8.29040727 76.62624172 6.12182617 79.41723633 C3.74957379 81.18680395 1.45667411 82.42633004 -1.25 83.625 C-2.14203125 84.02976562 -3.0340625 84.43453125 -3.953125 84.8515625 C-10.68263216 87.38806904 -16.7375854 88.36601532 -23.875 88.3125 C-24.66583984 88.30686035 -25.45667969 88.3012207 -26.27148438 88.29541016 C-38.8054798 88.03535807 -48.64649321 83.38079538 -57.75 74.75 C-66.83285413 65.13758017 -70.99581772 54.72398217 -71.375 41.5 C-71.01039726 28.76928782 -67.0644943 17.0718202 -58.25 7.6875 C-43.41509813 -6.1018945 -17.81169534 -12.06044913 0 0 Z " fill="#EEBD41" transform="translate(81,20)"/>
<path d="M0 0 C0 0.66 0 1.32 0 2 C1.0209375 2.061875 1.0209375 2.061875 2.0625 2.125 C8.79270182 4.12974097 13.09537588 9.80722259 16.70703125 15.578125 C20.0940756 21.92243768 21.44627957 27.8357598 20.8125 34.9921875 C19.52886213 38.16425417 17.91190638 39.19746854 15 41 C11.69583182 41.54685303 8.44672269 41.46603298 5.10546875 41.390625 C3.68443596 41.38213531 3.68443596 41.38213531 2.23469543 41.37347412 C-0.78155735 41.35114084 -3.79660822 41.3009498 -6.8125 41.25 C-8.86131093 41.22993107 -10.91014054 41.21168099 -12.95898438 41.1953125 C-17.97311709 41.15128594 -22.98635499 41.0822791 -28 41 C-27.23901018 42.28556295 -26.46900815 43.56579356 -25.6953125 44.84375 C-25.26750488 45.55724609 -24.83969727 46.27074219 -24.39892578 47.00585938 C-22.14776212 50.214848 -19.7372495 51.87601519 -16 53 C-9.16351535 53.99439777 -4.22960427 52.96557204 1.8671875 49.90625 C5.49488411 48.36481115 8.09671084 48.47074045 12 49 C14.5625 50.5 14.5625 50.5 16 53 C16.07320618 57.6119891 15.7550036 59.8805119 13.1875 63.6875 C3.22533233 70.91495497 -7.02231116 72.48493583 -19 71 C-26.01570674 69.50676396 -32.31489873 66.59653735 -37 61 C-37 60.34 -37 59.68 -37 59 C-37.66 59 -38.32 59 -39 59 C-40.47265625 56.953125 -40.47265625 56.953125 -42.0625 54.25 C-42.58972656 53.36828125 -43.11695313 52.4865625 -43.66015625 51.578125 C-48.00745409 43.2130621 -47.06158624 30.85307007 -45.421875 21.8125 C-42.52839753 13.60554572 -35.74905937 5.91863002 -28 2 C-27.01 2 -26.02 2 -25 2 C-25 1.34 -25 0.68 -25 0 C-16.67128251 -2.96132177 -8.32871749 -2.96132177 0 0 Z M-25.875 19.9375 C-27.23409207 22.2234057 -27.23409207 22.2234057 -28 26 C-18.43 26 -8.86 26 1 26 C-0.08069788 20.59651059 -0.9688375 19.45528214 -5 16 C-12.23323282 13.58892239 -20.37314074 14.25224544 -25.875 19.9375 Z " fill="#EEBD40" transform="translate(198,37)"/>
<path d="M0 0 C8.13825088 4.67195884 14.02603896 11.34635549 17.12109375 20.2109375 C19.55111854 30.68704439 19.57313209 43.5719937 14 53 C9.37185368 59.39211564 4.50414003 64.32928092 -3 67 C-3.91136719 67.35191406 -4.82273437 67.70382813 -5.76171875 68.06640625 C-15.45910192 70.86215363 -25.52751731 69.76236325 -34.515625 65.4140625 C-43.03473753 60.56513367 -48.74470573 53.44030848 -51.4765625 44.0234375 C-51.64929688 43.35570312 -51.82203125 42.68796875 -52 42 C-52.226875 41.154375 -52.45375 40.30875 -52.6875 39.4375 C-54.0808566 28.56931855 -51.77336383 16.81046573 -45 8 C-32.56450617 -4.63977299 -15.88681321 -7.61624818 0 0 Z M-29.4765625 17.58203125 C-34.31320345 24.07331252 -35.98709402 29.90582906 -35 38 C-33.18815812 43.92966432 -30.00726106 47.48426351 -25 51 C-19.98774506 52.67075165 -14.69543108 53.06531518 -9.70703125 51.09375 C-4.67138914 48.14605706 -1.38991784 44.59062108 0.75 39.0625 C1.69790114 31.24231557 0.32933823 24.82676995 -3.75 18.125 C-7.59665523 14.49204784 -11.7489879 12.85905674 -17 12.625 C-21.8045897 12.85733026 -26.08777387 13.95118629 -29.4765625 17.58203125 Z " fill="#EEBD40" transform="translate(348,39)"/>
<path d="M0 0 C1.59714844 0.75796875 1.59714844 0.75796875 3.2265625 1.53125 C6 4 6 4 6.47949219 6.01074219 C6.59152547 8.44977874 6.52349779 10.81311324 6.375 13.25 C6.33439453 14.51070312 6.33439453 14.51070312 6.29296875 15.796875 C6.22244109 17.86568634 6.11482367 19.93317393 6 22 C5.01 22 4.02 22 3 22 C1.66104368 20.33784732 0.32869858 18.67036393 -1 17 C-6.1370654 12.48940599 -11.3477999 11.74201994 -18 12 C-22.61248193 12.98137914 -26.87481951 14.72403835 -31 17 C-32.15922128 18.73142854 -32.15922128 18.73142854 -33 21 C-33.53625 22.03125 -34.0725 23.0625 -34.625 24.125 C-37.09182299 29.98999752 -36.67296873 35.83941618 -34.8125 41.8125 C-31.30417214 47.98231796 -26.64936139 51.68448681 -20 54 C-13.32717619 54.86100952 -7.86892497 53.27850292 -2 50 C1.81085112 46.76985 3.9629266 42.50300437 6 38 C10.29 38 14.58 38 19 38 C18.50436741 48.57349518 13.64349057 55.76082506 6 63 C5.34 63 4.68 63 4 63 C3.8040625 63.54527344 3.608125 64.09054688 3.40625 64.65234375 C1.38215201 68.03146289 -1.45399526 70.11446365 -4.5 72.5625 C-9.20022238 76.33798143 -9.20022238 76.33798143 -13 81 C-15.25219727 81.51660156 -15.25219727 81.51660156 -18 81 C-20.20242364 79.30817154 -22.03060189 77.69439288 -23.96484375 75.734375 C-24.52063614 75.18573792 -25.07642853 74.63710083 -25.64906311 74.07183838 C-26.82428371 72.90440056 -27.99313414 71.73052015 -29.15600586 70.55078125 C-30.90933079 68.77847418 -32.68955 67.03714084 -34.47460938 65.296875 C-43.84734896 55.99565027 -50.9306912 46.56938768 -51.25 32.8125 C-51.09302482 23.47247676 -48.13370965 15.07310662 -42 8 C-30.44759035 -2.51926732 -14.75895563 -7.49128809 0 0 Z " fill="#EDBD41" transform="translate(275,37)"/>
<path d="M0 0 C2.71035152 3.33581726 3.30170153 4.87958159 2.953125 9.0625 C2.02479794 12.55075925 0.36289902 14.00823896 -2.5625 16 C-6.36570274 16.42257808 -9.43392033 16.0243858 -13.1875 15.3125 C-16.52481698 14.75110636 -16.52481698 14.75110636 -19.3125 16.0625 C-22.47639484 18.786965 -24.24057802 21.77106758 -24.84695435 25.96951294 C-24.97051048 28.22471253 -25.00357284 30.46409252 -25.00390625 32.72265625 C-25.01711411 33.5457579 -25.03032196 34.36885956 -25.04393005 35.21690369 C-25.08462425 37.83213744 -25.10644026 40.44702247 -25.125 43.0625 C-25.14884578 45.68144146 -25.17704169 48.30005742 -25.21678162 50.91880798 C-25.24099425 52.54366209 -25.25597 54.16868794 -25.26039124 55.79371643 C-25.31751045 59.94896303 -25.58505478 63.30567622 -27.5625 67 C-29.85468611 69.02251715 -31.48211306 69.94724673 -34.5625 70.09765625 C-37.89965784 69.84614252 -40.06354616 69.48285855 -42.5 67.125 C-44.29500429 63.53499142 -44.69166381 60.74170969 -44.70776367 56.78173828 C-44.71414352 55.71698273 -44.72052338 54.65222717 -44.72709656 53.5552063 C-44.72820938 52.40519135 -44.7293222 51.25517639 -44.73046875 50.0703125 C-44.73546135 48.29658768 -44.73546135 48.29658768 -44.74055481 46.48703003 C-44.74562118 43.98370757 -44.74796322 41.48037836 -44.74780273 38.97705078 C-44.74998725 35.14734761 -44.76814095 31.31793335 -44.78710938 27.48828125 C-44.79004373 25.05729265 -44.79202824 22.62630269 -44.79296875 20.1953125 C-44.80015427 19.04934601 -44.80733978 17.90337952 -44.81474304 16.72268677 C-44.81166641 15.65162689 -44.80858978 14.58056702 -44.80541992 13.47705078 C-44.80684494 12.53789825 -44.80826996 11.59874573 -44.80973816 10.63113403 C-44.47191108 7.03594338 -43.40955627 4.18587878 -41.3125 1.25 C-38.72520647 -0.59806681 -36.72176366 -0.87362945 -33.5625 -1 C-30.28126625 0.52615523 -28.06086334 2.43683761 -25.5625 5 C-24.95921875 4.57847656 -24.3559375 4.15695313 -23.734375 3.72265625 C-22.93515625 3.17480469 -22.1359375 2.62695312 -21.3125 2.0625 C-20.52359375 1.51722656 -19.7346875 0.97195312 -18.921875 0.41015625 C-13.40241712 -2.88872503 -5.45492651 -3.86120689 0 0 Z " fill="#EEBC40" transform="translate(144.5625,37)"/>
<path d="M0 0 C1.32 0 2.64 0 4 0 C4 0.66 4 1.32 4 2 C5.55847656 1.94779297 5.55847656 1.94779297 7.1484375 1.89453125 C16.44791953 1.67803065 24.97972997 1.65315331 33 7 C33 7.66 33 8.32 33 9 C33.66 9 34.32 9 35 9 C34.34 11.31 33.68 13.62 33 16 C29.6676427 16.7934184 27.55860106 17.18886798 24.2734375 16.078125 C20.60060513 14.86845706 17.08347721 14.38882398 13.25 14.125 C12.54915283 14.07674072 11.84830566 14.02848145 11.1262207 13.97875977 C5.77959345 13.74688602 1.73810106 14.64244438 -3.08203125 17.08984375 C-5 18 -5 18 -8 18 C-8.268125 18.78375 -8.53625 19.5675 -8.8125 20.375 C-10.25059877 23.55395519 -11.93589631 24.46794816 -15 26 C-15.72693904 27.97888961 -16.39816251 29.97954558 -17 32 C-17.66 32 -18.32 32 -19 32 C-19.0588996 35.31242312 -19.09389398 38.62470851 -19.125 41.9375 C-19.14175781 42.86369141 -19.15851562 43.78988281 -19.17578125 44.74414062 C-19.21840994 50.81872962 -18.53224502 56.11835079 -17 62 C-16.34 62 -15.68 62 -15 62 C-14.7525 62.94875 -14.505 63.8975 -14.25 64.875 C-13.33509108 68.02789636 -13.33509108 68.02789636 -11.1875 69.1875 C-10.465625 69.455625 -9.74375 69.72375 -9 70 C-6.25 71.5 -6.25 71.5 -4 73 C-4 73.66 -4 74.32 -4 75 C-4.495 75.474375 -4.99 75.94875 -5.5 76.4375 C-7.34626591 77.99969942 -7.34626591 77.99969942 -7 81 C-6.34 81.33 -5.68 81.66 -5 82 C-5 82.99 -5 83.98 -5 85 C-9.75 84.125 -9.75 84.125 -12 83 C-12 82.34 -12 81.68 -12 81 C-13.32 81 -14.64 81 -16 81 C-16 80.34 -16 79.68 -16 79 C-16.8971875 78.62875 -16.8971875 78.62875 -17.8125 78.25 C-20.31626919 76.81927475 -21.48072388 75.4308418 -23 73 C-23 72.34 -23 71.68 -23 71 C-23.66 71 -24.32 71 -25 71 C-32.78543414 60.67583734 -33.88004008 50.62724169 -33 38 C-31.89921504 32.24726764 -29.83397167 27.12813921 -27 22 C-26.34 22 -25.68 22 -25 22 C-24.896875 21.401875 -24.79375 20.80375 -24.6875 20.1875 C-23.90175967 17.68741714 -23.03081147 16.62464918 -21 15 C-20.34 15 -19.68 15 -19 15 C-18.731875 14.38125 -18.46375 13.7625 -18.1875 13.125 C-17 11 -17 11 -14 9 C-13.01 9 -12.02 9 -11 9 C-10.67 8.01 -10.34 7.02 -10 6 C-7.71484375 4.83203125 -7.71484375 4.83203125 -4.9375 3.8125 C-4.01839844 3.46832031 -3.09929688 3.12414062 -2.15234375 2.76953125 C-1.44207031 2.51558594 -0.73179688 2.26164062 0 2 C0 1.34 0 0.68 0 0 Z " fill="#EEBD41" transform="translate(46,16)"/>
<path d="M0 0 C1.59714844 0.75796875 1.59714844 0.75796875 3.2265625 1.53125 C6 4 6 4 6.47949219 6.01074219 C6.59152547 8.44977874 6.52349779 10.81311324 6.375 13.25 C6.33439453 14.51070312 6.33439453 14.51070312 6.29296875 15.796875 C6.22244109 17.86568634 6.11482367 19.93317393 6 22 C5.01 22 4.02 22 3 22 C1.66104368 20.33784732 0.32869858 18.67036393 -1 17 C-6.1370654 12.48940599 -11.3477999 11.74201994 -18 12 C-22.61248193 12.98137914 -26.87481951 14.72403835 -31 17 C-32.15922128 18.73142854 -32.15922128 18.73142854 -33 21 C-33.53625 22.03125 -34.0725 23.0625 -34.625 24.125 C-37.09182299 29.98999752 -36.67296873 35.83941618 -34.8125 41.8125 C-31.30417214 47.98231796 -26.64936139 51.68448681 -20 54 C-13.32717619 54.86100952 -7.86892497 53.27850292 -2 50 C1.81085112 46.76985 3.9629266 42.50300437 6 38 C10.29 38 14.58 38 19 38 C18.50436741 48.57349518 13.64349057 55.76082506 6 63 C5.34 63 4.68 63 4 63 C3.8040625 63.54527344 3.608125 64.09054688 3.40625 64.65234375 C1.38215201 68.03146289 -1.45399526 70.11446365 -4.5 72.5625 C-9.20022238 76.33798143 -9.20022238 76.33798143 -13 81 C-15.25219727 81.51660156 -15.25219727 81.51660156 -18 81 C-20.20242364 79.30817154 -22.03060189 77.69439288 -23.96484375 75.734375 C-24.52063614 75.18573792 -25.07642853 74.63710083 -25.64906311 74.07183838 C-26.82428371 72.90440056 -27.99313414 71.73052015 -29.15600586 70.55078125 C-30.90933079 68.77847418 -32.68955 67.03714084 -34.47460938 65.296875 C-43.84734896 55.99565027 -50.9306912 46.56938768 -51.25 32.8125 C-51.09302482 23.47247676 -48.13370965 15.07310662 -42 8 C-30.44759035 -2.51926732 -14.75895563 -7.49128809 0 0 Z M-25 1 C-26.59952724 1.75984426 -28.20422169 2.50885792 -29.8125 3.25 C-35.79618347 6.21126817 -40.27651666 9.71503845 -43 16 C-43.495 16.5775 -43.99 17.155 -44.5 17.75 C-48.76961707 24.15442561 -48.76632339 32.58238259 -48 40 C-44.97287365 51.85943805 -34.44717211 60.80086883 -26 69 C-21.20434353 73.73346496 -21.20434353 73.73346496 -19.5625 75.875 C-17.91449677 77.30576486 -17.91449677 77.30576486 -15 76.875 C-12.01932831 76.00563742 -10.78893376 75.48463022 -9 73 C-9 72.34 -9 71.68 -9 71 C-8.41347656 70.7525 -7.82695312 70.505 -7.22265625 70.25 C-4.67313625 68.81617504 -3.28882935 67.25307196 -1.4375 65 C0.67356316 62.44227537 2.19970251 60.866865 5 59 C5 57.68 5 56.36 5 55 C5.99 55.33 6.98 55.66 8 56 C8.598125 54.9275 9.19625 53.855 9.8125 52.75 C11.02795267 50.60024919 12.20122648 48.7484669 13.75 46.8125 C15.37848864 44.81814804 15.37848864 44.81814804 15 41 C12.69 41 10.38 41 8 41 C8 42.32 8 43.64 8 45 C7.443125 45.226875 6.88625 45.45375 6.3125 45.6875 C3.84463785 46.9320519 3.84463785 46.9320519 1.875 49.3125 C-3.18401167 54.04157612 -8.99618016 57.22425522 -16 57.6875 C-21.98851182 57.39468633 -26.17281093 54.26893856 -31 51 C-32.32140133 50.30998497 -33.65103635 49.63444409 -35 49 C-35 48.34 -35 47.68 -35 47 C-35.66 46.67 -36.32 46.34 -37 46 C-40.05673468 36.99961456 -40.0184357 27.75592163 -37.046875 18.7421875 C-35.6989819 16.49905197 -34.37763572 16.01385976 -32 15 C-31.05125 14.34 -30.1025 13.68 -29.125 13 C-23.79389644 9.58809372 -19.31705159 8.46465665 -13 9 C-7.12398448 10.42986523 -2.12586631 12.83723142 3 16 C3 12.7 3 9.4 3 6 C2.34 6 1.68 6 1 6 C0.505 4.515 0.505 4.515 0 3 C-1.99519636 2.01059939 -1.99519636 2.01059939 -4.375 1.375 C-5.16648437 1.13523437 -5.95796875 0.89546875 -6.7734375 0.6484375 C-7.50820313 0.43445312 -8.24296875 0.22046875 -9 0 C-9.99 -0.33 -10.98 -0.66 -12 -1 C-13.66368258 -1.11766176 -15.33220803 -1.17509083 -17 -1.1875 C-17.86625 -1.20167969 -18.7325 -1.21585938 -19.625 -1.23046875 C-22.26721537 -1.16255938 -22.26721537 -1.16255938 -25 1 Z " fill="#EBC85E" transform="translate(275,37)"/>
<path d="M0 0 C0 0.66 0 1.32 0 2 C1.0209375 2.061875 1.0209375 2.061875 2.0625 2.125 C8.79270182 4.12974097 13.09537588 9.80722259 16.70703125 15.578125 C20.0940756 21.92243768 21.44627957 27.8357598 20.8125 34.9921875 C19.52886213 38.16425417 17.91190638 39.19746854 15 41 C11.69583182 41.54685303 8.44672269 41.46603298 5.10546875 41.390625 C3.68443596 41.38213531 3.68443596 41.38213531 2.23469543 41.37347412 C-0.78155735 41.35114084 -3.79660822 41.3009498 -6.8125 41.25 C-8.86131093 41.22993107 -10.91014054 41.21168099 -12.95898438 41.1953125 C-17.97311709 41.15128594 -22.98635499 41.0822791 -28 41 C-27.23901018 42.28556295 -26.46900815 43.56579356 -25.6953125 44.84375 C-25.26750488 45.55724609 -24.83969727 46.27074219 -24.39892578 47.00585938 C-22.14776212 50.214848 -19.7372495 51.87601519 -16 53 C-9.16351535 53.99439777 -4.22960427 52.96557204 1.8671875 49.90625 C5.49488411 48.36481115 8.09671084 48.47074045 12 49 C14.5625 50.5 14.5625 50.5 16 53 C16.07320618 57.6119891 15.7550036 59.8805119 13.1875 63.6875 C3.22533233 70.91495497 -7.02231116 72.48493583 -19 71 C-26.01570674 69.50676396 -32.31489873 66.59653735 -37 61 C-37 60.34 -37 59.68 -37 59 C-37.66 59 -38.32 59 -39 59 C-40.47265625 56.953125 -40.47265625 56.953125 -42.0625 54.25 C-42.58972656 53.36828125 -43.11695313 52.4865625 -43.66015625 51.578125 C-48.00745409 43.2130621 -47.06158624 30.85307007 -45.421875 21.8125 C-42.52839753 13.60554572 -35.74905937 5.91863002 -28 2 C-27.01 2 -26.02 2 -25 2 C-25 1.34 -25 0.68 -25 0 C-16.67128251 -2.96132177 -8.32871749 -2.96132177 0 0 Z M-30 7 C-30.89138672 7.61101563 -30.89138672 7.61101563 -31.80078125 8.234375 C-35.5426545 10.9849644 -36.95822591 13.52037141 -38 18 C-38.66 18 -39.32 18 -40 18 C-43.43016236 28.37215763 -44.89170318 39.49240143 -41 50 C-39.10183458 52.7905817 -39.10183458 52.7905817 -37 55 C-36.55333984 55.96292969 -36.55333984 55.96292969 -36.09765625 56.9453125 C-33.50470166 61.7990282 -27.92907311 64.8802615 -22.9375 66.875 C-12.82991985 69.76785915 -2.97422488 68.73533729 6.51171875 64.484375 C9.14179564 62.91541233 11.01555714 61.32816853 13 59 C13.54282688 55.38115411 12.84753138 53.11770921 11 50 C6.96149083 49.58579393 4.50097341 50.14153935 1 52 C-4.27622446 54.56608186 -9.19331233 54.27543295 -14.9609375 54.04296875 C-18.04642761 53.83236027 -18.04642761 53.83236027 -21 55 C-24.67646924 53.11673068 -27.44862282 50.47673193 -28.8984375 46.59375 C-29.37865979 44.39447109 -29.75640664 42.2370819 -30 40 C-27.36 40 -24.72 40 -22 40 C-22 39.67 -22 39.34 -22 39 C-20.92516357 38.98018066 -19.85032715 38.96036133 -18.74291992 38.93994141 C-14.75635286 38.86388742 -10.7701509 38.77516991 -6.78393555 38.68261719 C-5.05842292 38.64432655 -3.33283044 38.60947379 -1.60717773 38.578125 C0.87284895 38.53247596 3.35232591 38.47448219 5.83203125 38.4140625 C6.60400345 38.40251129 7.37597565 38.39096008 8.17134094 38.37905884 C11.95246674 38.27478727 13.78018835 38.1465411 17 36 C18.77980424 29.89781403 17.47452449 24.77389048 15 19 C13.04574599 16.57198745 11.74464881 15.3723244 9 14 C9 13.01 9 12.02 9 11 C8.34 11 7.68 11 7 11 C7 10.34 7 9.68 7 9 C5.824375 8.87625 5.824375 8.87625 4.625 8.75 C3.75875 8.5025 2.8925 8.255 2 8 C1.3162955 6.67532254 0.65035814 5.34136367 0 4 C-9.1833158 -0.86784785 -22.03036737 0.81461348 -30 7 Z " fill="#E9C453" transform="translate(198,37)"/>
<path d="M0 0 C0.495 1.485 0.495 1.485 1 3 C0.21753906 3.26554687 -0.56492188 3.53109375 -1.37109375 3.8046875 C-2.38300781 4.15789063 -3.39492188 4.51109375 -4.4375 4.875 C-5.95150391 5.39707031 -5.95150391 5.39707031 -7.49609375 5.9296875 C-10.13971751 6.74055093 -10.13971751 6.74055093 -11 9 C-12.71601187 9.95700662 -14.43244591 10.91327608 -16.15234375 11.86328125 C-20.21483042 14.36261237 -23.20064052 17.58339036 -25 22 C-25.66 22 -26.32 22 -27 22 C-27.68239354 23.99468882 -28.34370484 25.99657266 -29 28 C-29.26425781 28.69222656 -29.52851563 29.38445313 -29.80078125 30.09765625 C-33.15153945 39.60999825 -33.67949532 50.585153 -29.93359375 60.06640625 C-28.4472207 63.14487763 -26.74085561 66.05855431 -25 69 C-25 69.66 -25 70.32 -25 71 C-24.34 71 -23.68 71 -23 71 C-21.78125 72.49609375 -21.78125 72.49609375 -20.5 74.4375 C-18.7134637 77.22531847 -18.7134637 77.22531847 -16 79 C-16 79.66 -16 80.32 -16 81 C-14.68 81 -13.36 81 -12 81 C-12 81.66 -12 82.32 -12 83 C1.02322453 87.52195296 12.41757537 89.91903952 26 86 C27.7325 85.505 27.7325 85.505 29.5 85 C32.14532959 84.26297735 32.14532959 84.26297735 33 82 C34.66666667 81.66666667 36.33333333 81.33333333 38 81 C39.50606515 77.98786971 39.12160331 74.88717378 39.09765625 71.5859375 C39.0962413 70.85629791 39.09482635 70.12665833 39.09336853 69.37490845 C39.08776531 67.04156415 39.07521235 64.70831536 39.0625 62.375 C39.05748541 60.79427222 39.05292243 59.21354293 39.04882812 57.6328125 C39.03779484 53.75517146 39.02052811 49.87760193 39 46 C36.30734639 44.6536732 34.19885751 44.87037364 31.1875 44.8671875 C29.45113281 44.86525391 29.45113281 44.86525391 27.6796875 44.86328125 C25.85824219 44.86908203 25.85824219 44.86908203 24 44.875 C22.78570312 44.87113281 21.57140625 44.86726563 20.3203125 44.86328125 C19.16273437 44.86457031 18.00515625 44.86585937 16.8125 44.8671875 C15.21341797 44.86887939 15.21341797 44.86887939 13.58203125 44.87060547 C11.0131786 44.82595802 11.0131786 44.82595802 9 46 C9 47.98 9 49.96 9 52 C9.99 52.495 9.99 52.495 11 53 C11 53.66 11 54.32 11 55 C15.95 55 20.9 55 26 55 C25 57 25 57 24 58 C11.82533113 59.11548013 11.82533113 59.11548013 6.625 55.9375 C4.55901161 52.20282869 4.24876955 50.20689051 5 46 C7.4375 43.125 7.4375 43.125 10 41 C10.33 40.67 10.66 40.34 11 40 C15.40862243 39.6616001 19.83006712 39.67486591 24.25 39.625 C25.49136719 39.58761719 26.73273438 39.55023438 28.01171875 39.51171875 C29.20925781 39.50011719 30.40679687 39.48851562 31.640625 39.4765625 C33.28853027 39.4468335 33.28853027 39.4468335 34.96972656 39.41650391 C39.13952889 40.21942266 40.53413931 41.56780749 43 45 C43.48745933 47.94191609 43.68079763 50.29074393 43.62890625 53.22265625 C43.63131821 54.00515244 43.63373016 54.78764862 43.63621521 55.59385681 C43.63523889 57.24206632 43.62189628 58.89030948 43.59692383 60.53833008 C43.56255336 63.05858763 43.57628742 65.57534787 43.59570312 68.09570312 C43.58880572 69.70053572 43.57913428 71.3053593 43.56640625 72.91015625 C43.57384605 74.03684471 43.57384605 74.03684471 43.58143616 75.18629456 C43.50303833 78.67296617 43.29040727 80.62624172 41.12182617 83.41723633 C38.74957379 85.18680395 36.45667411 86.42633004 33.75 87.625 C32.85796875 88.02976562 31.9659375 88.43453125 31.046875 88.8515625 C24.31736784 91.38806904 18.2624146 92.36601532 11.125 92.3125 C10.33416016 92.30686035 9.54332031 92.3012207 8.72851562 92.29541016 C-3.8054798 92.03535807 -13.64649321 87.38079538 -22.75 78.75 C-31.83285413 69.13758017 -35.99581772 58.72398217 -36.375 45.5 C-36.01039726 32.76928782 -32.0644943 21.0718202 -23.25 11.6875 C-17.01748005 5.8617088 -8.74786671 0 0 0 Z " fill="#EAC553" transform="translate(46,16)"/>
<path d="M0 0 C2.71035152 3.33581726 3.30170153 4.87958159 2.953125 9.0625 C2.02479794 12.55075925 0.36289902 14.00823896 -2.5625 16 C-6.36570274 16.42257808 -9.43392033 16.0243858 -13.1875 15.3125 C-16.52481698 14.75110636 -16.52481698 14.75110636 -19.3125 16.0625 C-22.47639484 18.786965 -24.24057802 21.77106758 -24.84695435 25.96951294 C-24.97051048 28.22471253 -25.00357284 30.46409252 -25.00390625 32.72265625 C-25.01711411 33.5457579 -25.03032196 34.36885956 -25.04393005 35.21690369 C-25.08462425 37.83213744 -25.10644026 40.44702247 -25.125 43.0625 C-25.14884578 45.68144146 -25.17704169 48.30005742 -25.21678162 50.91880798 C-25.24099425 52.54366209 -25.25597 54.16868794 -25.26039124 55.79371643 C-25.31751045 59.94896303 -25.58505478 63.30567622 -27.5625 67 C-29.85468611 69.02251715 -31.48211306 69.94724673 -34.5625 70.09765625 C-37.89965784 69.84614252 -40.06354616 69.48285855 -42.5 67.125 C-44.29500429 63.53499142 -44.69166381 60.74170969 -44.70776367 56.78173828 C-44.71414352 55.71698273 -44.72052338 54.65222717 -44.72709656 53.5552063 C-44.72820938 52.40519135 -44.7293222 51.25517639 -44.73046875 50.0703125 C-44.73546135 48.29658768 -44.73546135 48.29658768 -44.74055481 46.48703003 C-44.74562118 43.98370757 -44.74796322 41.48037836 -44.74780273 38.97705078 C-44.74998725 35.14734761 -44.76814095 31.31793335 -44.78710938 27.48828125 C-44.79004373 25.05729265 -44.79202824 22.62630269 -44.79296875 20.1953125 C-44.80015427 19.04934601 -44.80733978 17.90337952 -44.81474304 16.72268677 C-44.81166641 15.65162689 -44.80858978 14.58056702 -44.80541992 13.47705078 C-44.80684494 12.53789825 -44.80826996 11.59874573 -44.80973816 10.63113403 C-44.47191108 7.03594338 -43.40955627 4.18587878 -41.3125 1.25 C-38.72520647 -0.59806681 -36.72176366 -0.87362945 -33.5625 -1 C-30.28126625 0.52615523 -28.06086334 2.43683761 -25.5625 5 C-24.95921875 4.57847656 -24.3559375 4.15695313 -23.734375 3.72265625 C-22.93515625 3.17480469 -22.1359375 2.62695312 -21.3125 2.0625 C-20.52359375 1.51722656 -19.7346875 0.97195312 -18.921875 0.41015625 C-13.40241712 -2.88872503 -5.45492651 -3.86120689 0 0 Z M-25.5625 9 C-26.8825 9 -28.2025 9 -29.5625 9 C-29.68625 8.195625 -29.81 7.39125 -29.9375 6.5625 C-30.14375 5.716875 -30.35 4.87125 -30.5625 4 C-33.27129335 2.64560332 -35.57183268 2.93498549 -38.5625 3 C-40.50579165 6.27423473 -40.82340463 8.74705627 -40.85302734 12.53125 C-40.86578705 13.63919922 -40.87854675 14.74714844 -40.89169312 15.88867188 C-40.89391876 17.08041016 -40.89614441 18.27214844 -40.8984375 19.5 C-40.9050943 20.72783203 -40.9117511 21.95566406 -40.91860962 23.22070312 C-40.92873356 25.816391 -40.93342672 28.4121049 -40.93310547 31.0078125 C-40.93748328 34.9848088 -40.97382102 38.96069972 -41.01171875 42.9375 C-41.01758589 45.45832953 -41.02155597 47.97916434 -41.0234375 50.5 C-41.03780853 51.69173828 -41.05217957 52.88347656 -41.06698608 54.11132812 C-41.06083282 55.21927734 -41.05467957 56.32722656 -41.04833984 57.46875 C-41.05118988 58.44263672 -41.05403992 59.41652344 -41.05697632 60.41992188 C-40.42041321 63.74138034 -39.20676656 64.95469005 -36.5625 67 C-33.9191226 67.08805146 -33.9191226 67.08805146 -31.5625 66 C-29.0877277 62.28784155 -29.24900014 59.3774554 -29.21875 55.078125 C-29.2041272 54.29991394 -29.18950439 53.52170288 -29.17443848 52.71990967 C-29.12794921 50.22999213 -29.09377123 47.74015234 -29.0625 45.25 C-29.0211352 41.98408981 -28.96731116 38.71871968 -28.90625 35.453125 C-28.9009729 34.71120911 -28.8956958 33.96929321 -28.89025879 33.20489502 C-28.74219687 25.36228196 -27.20275849 19.64025849 -21.5625 14 C-17.53163151 11.42472291 -14.29030682 12.18912122 -9.78515625 12.8359375 C-6.69053648 13.06436286 -4.36337025 12.26039161 -1.5625 11 C-0.26616379 9.93354885 -0.26616379 9.93354885 -0.5 7.4375 C-0.520625 6.633125 -0.54125 5.82875 -0.5625 5 C-1.5525 4.67 -2.5425 4.34 -3.5625 4 C-3.5625 3.34 -3.5625 2.68 -3.5625 2 C-12.45171914 1.25230867 -19.09439582 2.53189582 -25.5625 9 Z " fill="#EBC756" transform="translate(144.5625,37)"/>
<path d="M0 0 C8.13825088 4.67195884 14.02603896 11.34635549 17.12109375 20.2109375 C19.55111854 30.68704439 19.57313209 43.5719937 14 53 C9.37185368 59.39211564 4.50414003 64.32928092 -3 67 C-3.91136719 67.35191406 -4.82273437 67.70382813 -5.76171875 68.06640625 C-15.45910192 70.86215363 -25.52751731 69.76236325 -34.515625 65.4140625 C-43.03473753 60.56513367 -48.74470573 53.44030848 -51.4765625 44.0234375 C-51.64929688 43.35570312 -51.82203125 42.68796875 -52 42 C-52.226875 41.154375 -52.45375 40.30875 -52.6875 39.4375 C-54.0808566 28.56931855 -51.77336383 16.81046573 -45 8 C-32.56450617 -4.63977299 -15.88681321 -7.61624818 0 0 Z M-32 3 C-33.7015625 3.8353125 -33.7015625 3.8353125 -35.4375 4.6875 C-36.283125 5.120625 -37.12875 5.55375 -38 6 C-38 6.66 -38 7.32 -38 8 C-38.598125 8.2475 -39.19625 8.495 -39.8125 8.75 C-44.32638364 11.32936208 -46.38219033 16.11714448 -48.20703125 20.80859375 C-49.20766226 24.83576388 -49.37010315 28.61394643 -49.375 32.75 C-49.37653076 33.47082764 -49.37806152 34.19165527 -49.37963867 34.93432617 C-49.28952601 39.29044288 -48.73321573 42.99270689 -47 47 C-46.34 47.33 -45.68 47.66 -45 48 C-44.375 50.5625 -44.375 50.5625 -44 53 C-43.34 53 -42.68 53 -42 53 C-41.690625 54.11375 -41.690625 54.11375 -41.375 55.25 C-38.43195345 61.1360931 -31.94765506 63.17520296 -26.02734375 65.24609375 C-20.83067315 66.54023236 -13.94198905 67.47099452 -9 65 C-8.29875 64.9175 -7.5975 64.835 -6.875 64.75 C-2.78957381 63.68423665 0.71617062 61.6546845 4 59 C4.33 58.01 4.66 57.02 5 56 C5.61488281 55.72800781 6.22976563 55.45601562 6.86328125 55.17578125 C9.93655554 53.48463763 10.68738402 51.31499116 12.1875 48.1875 C12.95126953 46.63095703 12.95126953 46.63095703 13.73046875 45.04296875 C16.87927623 37.49551943 16.60220564 29.14994671 14.1796875 21.36328125 C13.22939549 19.15965136 12.17862165 17.08918133 11 15 C10.46375 13.96875 9.9275 12.9375 9.375 11.875 C4.96011656 6.53066741 -1.31677651 2.01557534 -8 0 C-10.83674511 -0.21541358 -13.54183445 -0.32488272 -16.375 -0.3125 C-17.10460937 -0.32861328 -17.83421875 -0.34472656 -18.5859375 -0.36132812 C-23.80781381 -0.36599051 -27.32904432 0.66739483 -32 3 Z " fill="#EAC450" transform="translate(348,39)"/>
<path d="M0 0 C-0.55198359 3.59955497 -1.69468022 4.88990926 -4.5625 7.0625 C-6.49174728 8.46192868 -6.49174728 8.46192868 -8 10 C-8 10.99 -8 11.98 -8 13 C-8.66 13 -9.32 13 -10 13 C-14.48774572 21.74134819 -16.90144638 30.60947257 -14.37890625 40.4140625 C-10.44043054 50.32151695 -1.98100166 59.14494878 6 66 C6.66 66 7.32 66 8 66 C9.3726682 67.97321053 10.70427617 69.97543152 12 72 C12.66 72.66 13.32 73.32 14 74 C17.89823383 73.91337258 19.61031486 73.34216256 22.5625 70.75 C23.7690625 69.38875 23.7690625 69.38875 25 68 C25.845625 67.175 26.69125 66.35 27.5625 65.5 C30.04657581 63.03609592 30.04657581 63.03609592 32.1875 60.25 C34 58 34 58 36 57 C36.65213292 54.97536745 36.65213292 54.97536745 37 53 C37.99 53 38.98 53 40 53 C40.61875 51.3603125 40.61875 51.3603125 41.25 49.6875 C42.60285591 46.48984058 43.94055844 44.79346574 47 43 C47 43.66 47 44.32 47 45 C47.66 45 48.32 45 49 45 C47.86634523 50.66827386 44.85010975 53.46535872 40.77734375 57.265625 C38.91837009 58.89008387 38.91837009 58.89008387 38 61 C37.34 61 36.68 61 36 61 C35.8040625 61.54527344 35.608125 62.09054688 35.40625 62.65234375 C33.38215201 66.03146289 30.54600474 68.11446365 27.5 70.5625 C22.79977762 74.33798143 22.79977762 74.33798143 19 79 C16.74780273 79.51660156 16.74780273 79.51660156 14 79 C11.79757636 77.30817154 9.96939811 75.69439288 8.03515625 73.734375 C7.47936386 73.18573792 6.92357147 72.63710083 6.35093689 72.07183838 C5.17571629 70.90440056 4.00686586 69.73052015 2.84399414 68.55078125 C1.09066921 66.77847418 -0.68955 65.03714084 -2.47460938 63.296875 C-11.84734896 53.99565027 -18.9306912 44.56938768 -19.25 30.8125 C-19.09319885 21.48283132 -16.14156366 13.05801079 -10 6 C-3.34297521 0 -3.34297521 0 0 0 Z " fill="#E9C451" transform="translate(243,39)"/>
<path d="M0 0 C2.91162528 2.39820644 2.97925122 2.83919695 3.5 6.875 C3.35754467 10.23199092 2.95124481 11.07091664 0.9375 14 C-2.84306973 16.57400492 -4.47659118 16.59323394 -9 16 C-10.65310596 15.52459698 -12.29876248 15.02278743 -13.9375 14.5 C-22.06609022 11.92533342 -29.15745266 12.49641367 -37 16 C-43.65857857 20.28798515 -48.20643325 26.39369387 -50.62109375 33.94140625 C-51.88937346 40.83195687 -51.03714462 48.12891688 -50 55 C-50.99 55 -51.98 55 -53 55 C-54.88168905 50.24743359 -55.27712671 45.98961622 -55.1875 40.9375 C-55.18685547 40.24333984 -55.18621094 39.54917969 -55.18554688 38.83398438 C-55.15367563 35.10504911 -54.88337649 31.62537712 -54 28 C-53.34 28 -52.68 28 -52 28 C-51.814375 27.1646875 -51.814375 27.1646875 -51.625 26.3125 C-50.94023145 23.77885636 -50.00866237 21.42078968 -49 19 C-47.68 19 -46.36 19 -45 19 C-44.67902344 17.85144531 -44.67902344 17.85144531 -44.3515625 16.6796875 C-42.09706073 12.20977937 -38.39977416 11.48862954 -33.86328125 9.87890625 C-25.12022166 7.88983809 -16.42120905 9.0808077 -8 12 C-4.74955291 12.16798469 -4.74955291 12.16798469 -2 12 C-1.34 9.69 -0.68 7.38 0 5 C-0.66 5 -1.32 5 -2 5 C-2.44988281 4.53851563 -2.89976563 4.07703125 -3.36328125 3.6015625 C-9.85139221 -2.74718569 -22.51180209 -1.69459338 -31 -2 C-31 -2.66 -31 -3.32 -31 -4 C-32.32 -4.33 -33.64 -4.66 -35 -5 C-23.57431801 -7.34372964 -9.89881165 -6.70256885 0 0 Z " fill="#E8C250" transform="translate(81,20)"/>
<path d="M0 0 C6.12785418 5.03845789 8.44445358 10.83341826 9.2734375 18.54296875 C9.5480519 25.69350518 8.35495914 31.20383136 4 37 C-2.45228353 42.55790759 -8.74984084 43.38167996 -17 43 C-20.0625 42.5 -20.0625 42.5 -22 42 C-19.74588281 39.59560833 -18.06354306 38.05748881 -14.6875 37.875 C-13.841875 37.91625 -12.99625 37.9575 -12.125 38 C-6.75133128 38.2079098 -4.29287617 37.26258589 0 34 C4.49567954 28.32124689 5.4698372 24.16501729 5 17 C3.70337417 11.04777277 1.91486599 6.86168042 -3 3 C-7.13017154 0.65584859 -11.34910978 0.44295421 -16 1 C-21.74919347 2.72475804 -24.15788501 4.7368241 -27 10 C-28.87301032 13.92598961 -29.22031785 16.97553772 -29.125 21.3125 C-29.10695313 22.38113281 -29.08890625 23.44976562 -29.0703125 24.55078125 C-29.04710937 25.35902344 -29.02390625 26.16726562 -29 27 C-29.66 27 -30.32 27 -31 27 C-30.67 28.32 -30.34 29.64 -30 31 C-30.66 30.67 -31.32 30.34 -32 30 C-32 28.35 -32 26.7 -32 25 C-32.66 25 -33.32 25 -34 25 C-34.40534196 18.51452871 -33.57239229 13.96795011 -31 8 C-30.67 7.01 -30.34 6.02 -30 5 C-29.01 4.34 -28.02 3.68 -27 3 C-26.67 2.01 -26.34 1.02 -26 0 C-17.84269111 -4.42461174 -8.09401018 -4.42779551 0 0 Z " fill="#EBC44F" transform="translate(343,52)"/>
<path d="M0 0 C0.33 0.33 0.66 0.66 1 1 C0.979375 1.969375 0.95875 2.93875 0.9375 3.9375 C0.64862426 7.11031214 0.64862426 7.11031214 3 9 C2.67 10.32 2.34 11.64 2 13 C-5.59 13 -13.18 13 -21 13 C-21.33 11.35 -21.66 9.7 -22 8 C-21.67 7.67 -21.34 7.34 -21 7 C-20.63239269 4.67182036 -20.29758419 2.3381615 -20 0 C-12.61814837 -3.23765422 -7.5026415 -3.53065482 0 0 Z " fill="#F7F2D4" transform="translate(269,66)"/>
<path d="M0 0 C1.9375 1.5625 1.9375 1.5625 3 3 C3 3.66 3 4.32 3 5 C3.66 5 4.32 5 5 5 C6.34267311 11.46924316 6.34267311 11.46924316 4.89599609 13.70996094 C2.20417638 15.54147978 0.21346224 15.35604176 -3.0234375 15.328125 C-4.209375 15.32296875 -5.3953125 15.3178125 -6.6171875 15.3125 C-7.85726562 15.291875 -9.09734375 15.27125 -10.375 15.25 C-11.60734375 15.24484375 -12.8396875 15.2396875 -14.109375 15.234375 C-24.03537553 15.14824918 -24.03537553 15.14824918 -29 14 C-30.0257259 9.58937864 -30.03684712 7.07369424 -28 3 C-27.01 3 -26.02 3 -25 3 C-25 1.68 -25 0.36 -25 -1 C-16.54735738 -4.00538404 -7.95890709 -4.47688524 0 0 Z M-24.875 4.9375 C-26.23409207 7.2234057 -26.23409207 7.2234057 -27 11 C-17.43 11 -7.86 11 2 11 C0.91930212 5.59651059 0.0311625 4.45528214 -4 1 C-11.23323282 -1.41107761 -19.37314074 -0.74775456 -24.875 4.9375 Z " fill="#E3BE4B" transform="translate(197,52)"/>
<path d="M0 0 C-6.37773502 2.89897046 -12.75933498 3.12546452 -19.68359375 3.09765625 C-20.38396255 3.0962413 -21.08433136 3.09482635 -21.80592346 3.09336853 C-24.01649466 3.08782477 -26.22696004 3.07528326 -28.4375 3.0625 C-29.94726415 3.05747771 -31.45702991 3.05291609 -32.96679688 3.04882812 C-36.64456493 3.03787387 -40.32227212 3.0206489 -44 3 C-40.39735253 9.47371185 -40.39735253 9.47371185 -34.6875 14 C-33.99011719 14.391875 -33.29273438 14.78375 -32.57421875 15.1875 C-32.05472656 15.455625 -31.53523437 15.72375 -31 16 C-33 16.66666667 -35 17.33333333 -37 18 C-41.11955694 15.74036184 -44.36931193 12.76184117 -45.96484375 8.3046875 C-46.44121864 5.86370084 -46.80055798 3.47806706 -47 1 C-44.7289835 -0.13550825 -43.38257186 -0.15898412 -40.85742188 -0.22119141 C-40.00313599 -0.24436432 -39.1488501 -0.26753723 -38.26867676 -0.29141235 C-37.34470093 -0.3112619 -36.4207251 -0.33111145 -35.46875 -0.3515625 C-34.52189331 -0.37471527 -33.57503662 -0.39786804 -32.5994873 -0.42172241 C-30.5955138 -0.46938397 -28.59148125 -0.51461533 -26.58740234 -0.55761719 C-23.51247053 -0.62472783 -20.43793382 -0.70247587 -17.36328125 -0.78125 C-15.41928558 -0.8261635 -13.47527542 -0.87045529 -11.53125 -0.9140625 C-10.60727417 -0.93796051 -9.68329834 -0.96185852 -8.73132324 -0.98648071 C-7.87703735 -1.0033493 -7.02275146 -1.0202179 -6.14257812 -1.03759766 C-5.38916138 -1.05456696 -4.63574463 -1.07153625 -3.85949707 -1.08901978 C-2 -1 -2 -1 0 0 Z " fill="#E0BB50" transform="translate(214,75)"/>
<path d="M0 0 C0.33 0 0.66 0 1 0 C1.68689282 7.72754422 -0.48817292 14.55398296 -5.05859375 20.82421875 C-8.94660706 25.31543142 -12.31786499 28.90105831 -18 31 C-20.375 30.1875 -20.375 30.1875 -22 29 C-21.41992188 28.64808594 -20.83984375 28.29617187 -20.2421875 27.93359375 C-9.24576427 20.9837091 -4.95689743 13.17506902 -1 1 C-0.67 0.67 -0.34 0.34 0 0 Z " fill="#EEC855" transform="translate(365,74)"/>
<path d="M0 0 C4 4.75 4 4.75 4 7 C5.32 7.66 6.64 8.32 8 9 C8 9.66 8 10.32 8 11 C12.3039919 12.74849671 16.64750591 14.3770361 21 16 C20.67 17.32 20.34 18.64 20 20 C13.2732572 18.65465144 7.18337949 15.50429661 2 11 C0.67578125 7.765625 0.67578125 7.765625 0 5 C-0.66 5 -1.32 5 -2 5 C-1.34 3.35 -0.68 1.7 0 0 Z " fill="#E0B848" transform="translate(31,73)"/>
<path d="M0 0 C-0.33 0.99 -0.66 1.98 -1 3 C-2.0209375 3.12375 -2.0209375 3.12375 -3.0625 3.25 C-6.16608184 3.85763292 -6.16608184 3.85763292 -8.9375 6.0625 C-14.29483626 9.32194131 -20.96921008 8.63172708 -27 8 C-29.42578125 6.9765625 -29.42578125 6.9765625 -31 6 C-27.40787105 3.60524737 -26.09696974 3.89543663 -21.875 4.125 C-16.33547964 4.23591364 -12.80533675 3.43720597 -7.9453125 0.890625 C-5.2560889 -0.3405858 -2.90599865 -0.29805114 0 0 Z " fill="#E9C04A" transform="translate(209,87)"/>
<path d="M0 0 C1.875 0.5625 1.875 0.5625 4 2 C6.28769155 7.33794695 6.59786623 12.44500198 5 18 C3.125 20.5625 3.125 20.5625 0 22 C-3.69295864 22.30644805 -7.3045666 22.23298704 -11 22 C-11 21.67 -11 21.34 -11 21 C-10.22914063 20.91363281 -9.45828125 20.82726562 -8.6640625 20.73828125 C-7.66117188 20.59777344 -6.65828125 20.45726563 -5.625 20.3125 C-4.62726563 20.18488281 -3.62953125 20.05726562 -2.6015625 19.92578125 C0.19233808 19.24556128 0.19233808 19.24556128 1.37109375 16.6640625 C2.24223865 12.97387105 1.65802492 9.66920419 1 6 C0.814375 4.845 0.62875 3.69 0.4375 2.5 C0.293125 1.675 0.14875 0.85 0 0 Z " fill="#ECCB54" transform="translate(213,56)"/>
<path d="M0 0 C0 0.99 0 1.98 0 3 C-5.5415502 4.96263236 -9.20858017 5.01603857 -15 4 C-14.67 3.01 -14.34 2.02 -14 1 C-12.04310963 0.63794536 -10.08442332 0.28558579 -8.125 -0.0625 C-7.03445312 -0.25972656 -5.94390625 -0.45695312 -4.8203125 -0.66015625 C-2 -1 -2 -1 0 0 Z " fill="#ECC553" transform="translate(70,89)"/>
<path d="M0 0 C0.99 0 1.98 0 3 0 C3.53625 1.0725 4.0725 2.145 4.625 3.25 C6.81079739 7.12625221 9.16583981 8.82149989 13 11 C12.01 12.485 12.01 12.485 11 14 C6.54705596 12.6005033 3.91905838 10.64882297 1 7 C0.1875 3.1875 0.1875 3.1875 0 0 Z " fill="#E1B744" transform="translate(312,79)"/>
<path d="M0 0 C0.33 0 0.66 0 1 0 C2.38529821 5.45461169 3.2396943 10.36718401 3 16 C2.01 16 1.02 16 0 16 C-2.35723489 13.46815512 -3 12.52809907 -3 9 C-2.34 9 -1.68 9 -1 9 C-0.67 6.03 -0.34 3.06 0 0 Z " fill="#EDD06A" transform="translate(278,43)"/>
<path d="M0 0 C3.3 0 6.6 0 10 0 C10 2.64 10 5.28 10 8 C9.01 8 8.02 8 7 8 C7 6.02 7 4.04 7 2 C4.69 2 2.38 2 0 2 C0 1.34 0 0.68 0 0 Z " fill="#EBC559" transform="translate(283,76)"/>
<path d="M0 0 C0 0.33 0 0.66 0 1 C-2.91691525 1.05401695 -5.83282724 1.09368066 -8.75 1.125 C-9.575 1.14175781 -10.4 1.15851562 -11.25 1.17578125 C-12.04921875 1.18222656 -12.8484375 1.18867188 -13.671875 1.1953125 C-14.4050293 1.20578613 -15.13818359 1.21625977 -15.89355469 1.22705078 C-18.29896076 0.96777544 -19.91251494 0.19225925 -22 -1 C-14.26988001 -2.58566564 -7.46193649 -2.5402337 0 0 Z " fill="#EEC951" transform="translate(68,16)"/>
<path d="M0 0 C1.98 0.66 3.96 1.32 6 2 C6 2.66 6 3.32 6 4 C7.32 4.33 8.64 4.66 10 5 C0.58997722 5.18451025 0.58997722 5.18451025 -4 4 C-2.68 2.68 -1.36 1.36 0 0 Z " fill="#E9C04A" transform="translate(325,90)"/>
<path d="M0 0 C0 0.99 0 1.98 0 3 C0.66 3.33 1.32 3.66 2 4 C-0.64 4.33 -3.28 4.66 -6 5 C-6.33 3.35 -6.66 1.7 -7 0 C-3.86650268 -1.04449911 -3.01031744 -0.93423645 0 0 Z " fill="#F5EBBD" transform="translate(254,74)"/>
<path d="M0 0 C0.33 0.99 0.66 1.98 1 3 C-2.3 3 -5.6 3 -9 3 C-8.67 2.01 -8.34 1.02 -8 0 C-5.13822943 -1.43088528 -3.06624227 -0.59991697 0 0 Z " fill="#F8FCFC" transform="translate(263,74)"/>
<path d="M0 0 C1.32 0.33 2.64 0.66 4 1 C4.33 2.32 4.66 3.64 5 5 C2.6875 5.625 2.6875 5.625 0 6 C-0.99 5.34 -1.98 4.68 -3 4 C-2.34 4 -1.68 4 -1 4 C-0.67 2.68 -0.34 1.36 0 0 Z " fill="#F5EBBF" transform="translate(267,73)"/>
<path d="M0 0 C-5.75 3.875 -5.75 3.875 -8 5 C-8 5.99 -8 6.98 -8 8 C-8.66 8 -9.32 8 -10 8 C-10.33 6.02 -10.66 4.04 -11 2 C-9.73392393 1.46770674 -8.46189588 0.94955456 -7.1875 0.4375 C-6.47980469 0.14746094 -5.77210938 -0.14257812 -5.04296875 -0.44140625 C-3 -1 -3 -1 0 0 Z " fill="#F6EDC2" transform="translate(260,64)"/>
<path d="M0 0 C6.6 0 13.2 0 20 0 C20 0.33 20 0.66 20 1 C14.06 1 8.12 1 2 1 C1.34 2.32 0.68 3.64 0 5 C-0.66 4.67 -1.32 4.34 -2 4 C-1.34 2.68 -0.68 1.36 0 0 Z " fill="#EBD062" transform="translate(57,56)"/>
<path d="M0 0 C1.98 0.495 1.98 0.495 4 1 C3.67 2.32 3.34 3.64 3 5 C1.68 4.67 0.36 4.34 -1 4 C-0.67 2.68 -0.34 1.36 0 0 Z " fill="#F7F9F8" transform="translate(258,65)"/>
</svg>
